<?xml version="1.0" standalone="no"?>
<!DOCTYPE svg PUBLIC "-//W3C//DTD SVG 20010904//EN"
 "http://www.w3.org/TR/2001/REC-SVG-20010904/DTD/svg10.dtd">
<svg version="1.0" xmlns="http://www.w3.org/2000/svg"
 width="177.000000pt" height="177.000000pt" viewBox="0 0 177.000000 177.000000"
 preserveAspectRatio="xMidYMid meet">
<metadata>
Created by potrace 1.11, written by Peter Selinger 2001-2013
</metadata>
<g transform="translate(0.000000,177.000000) scale(0.100000,-0.100000)"
fill="#000000" stroke="none">
<path d="M807 1474 c-34 -34 -42 -73 -23 -117 15 -37 58 -67 96 -67 38 0 81
30 96 67 31 74 -15 143 -96 143 -37 0 -53 -5 -73 -26z"/>
<path d="M669 1237 c-51 -34 -69 -78 -69 -169 l0 -78 -169 0 c-158 0 -170 -1
-202 -23 -50 -33 -69 -79 -69 -162 0 -72 22 -139 58 -178 30 -33 85 -55 193
-75 57 -11 123 -27 146 -35 l41 -14 4 83 c3 79 5 85 38 119 19 19 50 40 70 45
39 11 310 14 310 3 0 -3 -14 -28 -31 -55 l-31 -48 -109 0 -109 0 0 -135 0
-135 135 0 135 0 0 99 0 99 46 63 c26 35 49 66 51 68 2 3 14 -5 26 -17 18 -19
23 -36 25 -106 l4 -83 39 13 c21 8 87 22 146 33 59 11 117 23 128 27 80 29
125 109 125 224 0 89 -19 134 -69 167 -32 22 -44 23 -202 23 l-169 0 0 78 c0
91 -18 135 -69 169 -32 22 -44 23 -211 23 -167 0 -179 -1 -211 -23z m261 -252
c82 -42 80 -159 -4 -199 -42 -20 -50 -20 -92 0 -40 19 -64 59 -64 104 0 42 15
67 53 90 38 24 68 25 107 5z m1 -372 c-5 -10 -16 -26 -23 -37 -14 -17 -15 -17
-32 9 -13 19 -24 25 -43 23 -39 -5 -49 -28 -33 -82 19 -67 44 -96 85 -96 30 0
37 6 69 58 l35 57 1 -72 0 -73 -115 0 -115 0 0 115 0 115 90 0 c83 0 90 -1 81
-17z"/>
<path d="M395 1227 c-62 -28 -79 -121 -30 -169 80 -80 208 -4 176 104 -19 61
-87 91 -146 65z"/>
<path d="M1272 1225 c-68 -30 -78 -141 -15 -182 31 -20 82 -22 116 -4 74 39
64 163 -15 190 -39 14 -46 13 -86 -4z"/>
</g>
</svg>
